<?xml version="1.0" encoding="utf-8"?>
<!-- Generator: Adobe Illustrator 24.3.0, SVG Export Plug-In . SVG Version: 6.00 Build 0)  -->
<svg version="1.1" id="Layer_1" xmlns="http://www.w3.org/2000/svg" xmlns:xlink="http://www.w3.org/1999/xlink" x="0px" y="0px"
	 viewBox="0 0 200 200" enable-background="new 0 0 200 200" xml:space="preserve">
<g>
	<g>
		<path fill="#879291" d="M120.074,139.072l13.573-15.702c0.742-0.86,0.34-2.426-0.899-3.498c-1.243-1.075-2.851-1.246-3.593-0.385
			l-13.573,15.701L120.074,139.072z"/>
		<path fill="#322F2C" d="M133.742,123.26c-0.744,0.86-2.353,0.689-3.592-0.383l0,0c-1.243-1.074-1.646-2.641-0.902-3.499
			l25.616-29.634c0.744-0.86,2.351-0.69,3.595,0.385l0,0c1.241,1.073,1.64,2.638,0.898,3.499L133.742,123.26z"/>
		<path fill="#322F2C" d="M139.291,128.523c-0.821,0.945-2.26,1.042-3.216,0.215l-12.585-10.881
			c-0.956-0.827-1.072-2.265-0.251-3.211l0,0c0.817-0.947,2.256-1.043,3.214-0.215l12.587,10.879
			C139.995,126.136,140.108,127.576,139.291,128.523L139.291,128.523z"/>
		<g>
			
				<rect x="139.473" y="106.819" transform="matrix(0.6543 -0.7562 0.7562 0.6543 -34.1236 144.9317)" fill="#3D3937" width="3.975" height="5.94"/>
			
				<rect x="145.322" y="100.053" transform="matrix(0.6537 -0.7567 0.7567 0.6537 -26.9506 147.152)" fill="#3D3937" width="3.975" height="5.94"/>
			
				<rect x="142.953" y="103.437" transform="matrix(0.654 -0.7565 0.7565 0.654 -30.536 146.0534)" fill="#3D3937" width="2.866" height="5.938"/>
			
				<rect x="148.787" y="96.64" transform="matrix(0.6542 -0.7563 0.7563 0.6542 -23.375 148.0952)" fill="#3D3937" width="2.947" height="5.938"/>
			
				<rect x="137.036" y="110.234" transform="matrix(0.6539 -0.7566 0.7566 0.6539 -37.71 143.969)" fill="#3D3937" width="2.947" height="5.939"/>
			
				<rect x="133.571" y="113.648" transform="matrix(0.6541 -0.7564 0.7564 0.6541 -41.3207 142.8749)" fill="#3D3937" width="3.975" height="5.939"/>
			<path fill="#3D3937" d="M157.446,95.838l1.911-2.21c0.742-0.861,0.344-2.427-0.898-3.499c-1.243-1.075-2.851-1.245-3.595-0.385
				l-1.91,2.209L157.446,95.838z"/>
			<path fill="#3D3937" d="M131.324,116.974l-2.076,2.404c-0.744,0.858-0.342,2.425,0.902,3.499
				c1.239,1.073,2.848,1.243,3.592,0.383l2.076-2.402L131.324,116.974z"/>
			
				<rect x="151.225" y="93.226" transform="matrix(0.6541 -0.7564 0.7564 0.6541 -19.7662 149.1654)" fill="#3D3937" width="3.975" height="5.938"/>
		</g>
	</g>
	<g>
		<path fill="#879291" d="M80.591,138.127l-13.573-15.702c-0.742-0.86-0.34-2.426,0.899-3.499c1.243-1.074,2.851-1.246,3.593-0.385
			l13.573,15.701L80.591,138.127z"/>
		<path fill="#322F2C" d="M66.923,122.316c0.744,0.86,2.353,0.689,3.592-0.383l0,0c1.243-1.075,1.646-2.641,0.902-3.5L45.8,88.799
			c-0.744-0.86-2.351-0.689-3.595,0.385l0,0c-1.241,1.073-1.64,2.638-0.898,3.5L66.923,122.316z"/>
		<path fill="#322F2C" d="M61.373,127.579c0.821,0.945,2.26,1.042,3.216,0.215l12.585-10.88c0.956-0.827,1.072-2.265,0.251-3.211
			l0,0c-0.817-0.947-2.256-1.043-3.214-0.215l-12.587,10.879C60.67,125.192,60.556,126.631,61.373,127.579L61.373,127.579z"/>
		<g>
			
				<rect x="56.234" y="106.858" transform="matrix(0.7563 -0.6543 0.6543 0.7563 -56.7841 65.2658)" fill="#3D3937" width="5.94" height="3.975"/>
			
				<rect x="50.385" y="100.092" transform="matrix(0.7567 -0.6537 0.6537 0.7567 -53.7524 59.7128)" fill="#3D3937" width="5.94" height="3.975"/>
			
				<rect x="53.31" y="104.029" transform="matrix(0.7566 -0.6539 0.6539 0.7566 -55.2634 62.4754)" fill="#3D3937" width="5.938" height="2.866"/>
			
				<rect x="47.435" y="97.192" transform="matrix(0.7563 -0.6542 0.6542 0.7563 -52.2655 57.0195)" fill="#3D3937" width="5.938" height="2.947"/>
			
				<rect x="59.186" y="110.785" transform="matrix(0.7566 -0.6539 0.6539 0.7566 -58.2764 67.9689)" fill="#3D3937" width="5.939" height="2.947"/>
			
				<rect x="62.137" y="113.686" transform="matrix(0.7564 -0.6541 0.6541 0.7564 -59.8024 70.7634)" fill="#3D3937" width="5.939" height="3.974"/>
			<path fill="#3D3937" d="M43.219,94.894l-1.911-2.209c-0.742-0.861-0.344-2.427,0.898-3.5c1.243-1.074,2.851-1.245,3.595-0.385
				l1.91,2.21L43.219,94.894z"/>
			<path fill="#3D3937" d="M69.34,116.03l2.076,2.404c0.744,0.858,0.342,2.425-0.902,3.5c-1.239,1.072-2.848,1.243-3.592,0.383
				l-2.076-2.402L69.34,116.03z"/>
			
				<rect x="44.483" y="93.263" transform="matrix(0.7564 -0.6541 0.6541 0.7564 -50.7455 54.243)" fill="#3D3937" width="5.938" height="3.975"/>
		</g>
	</g>
	<path fill="#F4B85C" d="M110.277,119.813c-1.29-1.532-5.899-7.688-3.922-15.407H93.61c0,0,1.306,6.85,0,9.23
		c-0.784,1.425-2.766,4.129-4.229,6.071c-19.404,2.726-29.415,12.816-29.415,26.495h78.197
		C136.776,132.954,128.237,123.277,110.277,119.813z"/>
	<g>
		<path fill="#F4B85C" d="M123.288,89.4c0,13.634-9.987,28.414-22.81,28.414c-12.817,0-23.621-14.78-23.621-28.414
			c0-13.63,10.393-28.823,23.217-28.823C112.895,60.577,123.288,75.77,123.288,89.4z"/>
	</g>
	<path fill="#F4B85C" d="M82.768,92.941"/>
	<path fill="#2D2A27" d="M110.275,119.813c-0.091-0.106-0.2-0.241-0.317-0.392c-8.166,2.758-15.076,1.108-19.655-0.951
		c-0.319,0.43-0.633,0.851-0.924,1.237c-19.404,2.726-29.415,12.816-29.415,26.495h78.197
		C136.775,132.954,128.235,123.277,110.275,119.813z"/>
	<path fill="#E23F30" d="M75.804,96.571c0.388-0.129,23.742-8.531,23.742-8.531l23.742,8.531c0,0-24.454,9.057-24.971,9.186
		S75.804,96.571,75.804,96.571z"/>
	<path fill="#2D2A27" d="M99.548,53.194c-14.115,0-25.556,18.498-25.556,35.094c0,16.601,11.891,34.596,26.003,34.596
		c14.113,0,25.105-17.996,25.105-34.596C125.099,71.692,113.659,53.194,99.548,53.194z M78.019,95.544v-8.936h43.829l-0.76,8.936
		H78.019z"/>
	<path fill="#2D2A27" d="M90.942,88.617c0,0.319-0.782,0.578-1.747,0.578c-0.964,0-1.747-0.259-1.747-0.578s0.782-0.578,1.747-0.578
		C90.159,88.039,90.942,88.298,90.942,88.617z"/>
	<path fill="#2D2A27" d="M112.159,88.617c0,0.319-0.782,0.578-1.747,0.578c-0.964,0-1.747-0.259-1.747-0.578
		s0.783-0.578,1.747-0.578C111.377,88.039,112.159,88.298,112.159,88.617z"/>
	<path fill="#3D3937" d="M119.783,122.514c3.718,1.399,6.872,3.181,9.453,5.3c-3.415,4.022-9.817,12.06-14.815,18.387H99.546
		L119.783,122.514z"/>
	<path fill="#322F2C" d="M99.065,95.544H78.019v-8.936h21.045V53.234c-13.889,0.42-25.072,18.651-25.072,35.054
		c0,12.247,6.481,25.23,15.542,31.21c-0.051,0.067-0.107,0.143-0.156,0.208c-19.404,2.726-29.415,12.816-29.415,26.495h39.101
		V95.544z"/>
	<path fill="#3D3937" d="M77.377,122.514c-3.718,1.399-6.872,3.181-9.453,5.3c3.415,4.022,9.817,12.06,14.815,18.387h14.875
		L77.377,122.514z"/>
</g>
</svg>
